<svg xmlns="http://www.w3.org/2000/svg" xmlns:xlink="http://www.w3.org/1999/xlink">

<symbol id="github" fill-rule="evenodd" clip-rule="evenodd" stroke-linejoin="round" stroke-miterlimit="1.414"><path d="M8 0C3.58 0 0 3.582 0 8c0 3.535 2.292 6.533 5.47 7.59.4.075.547-.172.547-.385 0-.19-.007-.693-.01-1.36-2.226.483-2.695-1.073-2.695-1.073-.364-.924-.89-1.17-.89-1.17-.725-.496.056-.486.056-.486.803.056 1.225.824 1.225.824.714 1.223 1.873.87 2.33.665.072-.517.278-.87.507-1.07-1.777-.2-3.644-.888-3.644-3.953 0-.873.31-1.587.823-2.147-.09-.202-.36-1.015.07-2.117 0 0 .67-.215 2.2.82.64-.178 1.32-.266 2-.27.68.004 1.36.092 2 .27 1.52-1.035 2.19-.82 2.19-.82.43 1.102.16 1.915.08 2.117.51.56.82 1.274.82 2.147 0 3.073-1.87 3.75-3.65 3.947.28.24.54.73.54 1.48 0 1.07-.01 1.93-.01 2.19 0 .21.14.46.55.38C13.71 14.53 16 11.53 16 8c0-4.418-3.582-8-8-8"/></symbol>


<symbol id="linkedin" fill-rule="evenodd" clip-rule="evenodd" stroke-linejoin="round" stroke-miterlimit="1.414">
<linearGradient id="_zRckIf366dQufSrDA5IFa_91AZsA4BDGzd_gr1" x1="-10.294" x2="50.002" y1="-10.294" y2="50.002" gradientUnits="userSpaceOnUse"><stop offset="0" stop-color="#262626" stop-opacity="0"></stop><stop offset="1" stop-color="#262626" stop-opacity=".8"></stop></linearGradient><path fill="url(#_zRckIf366dQufSrDA5IFa_91AZsA4BDGzd_gr1)" d="M36,6H12c-3.314,0-6,2.686-6,6v24c0,3.314,2.686,6,6,6h24c3.314,0,6-2.686,6-6V12 C42,8.686,39.314,6,36,6z M17,36h-5V21c0-1.105,0.895-2,2-2h3V36z M15.122,16.925c-1.861,0.449-3.496-1.186-3.047-3.047 c0.211-0.875,0.928-1.592,1.803-1.803c1.861-0.448,3.495,1.186,3.047,3.047C16.714,15.997,15.997,16.714,15.122,16.925z M36,36h-3 c-1.105,0-2-0.895-2-2l0-6.83c0-1.624-1.216-3.081-2.839-3.166C26.431,23.914,25,25.29,25,27v9h-5V21c0-1.105,0.895-2,2-2h3v2 c0,0,1.5-2,4.5-2c3.866,0,6.5,2.768,6.5,7V36z"></path><linearGradient id="_zRckIf366dQufSrDA5IFb_91AZsA4BDGzd_gr2" x1="6.932" x2="83.561" y1="9.182" y2="100.504" gradientUnits="userSpaceOnUse"><stop offset="0" stop-color="#262626" stop-opacity="0"></stop><stop offset="1" stop-color="#262626" stop-opacity=".8"></stop></linearGradient><path fill="url(#_zRckIf366dQufSrDA5IFb_91AZsA4BDGzd_gr2)" d="M14,19h3v17h-5V21C12,19.895,12.895,19,14,19z M14.5,12c-1.381,0-2.5,1.119-2.5,2.5 s1.119,2.5,2.5,2.5s2.5-1.119,2.5-2.5S15.881,12,14.5,12z M29.5,19c-3,0-4.5,2-4.5,2v-2h-3c-1.105,0-2,0.895-2,2v15h5l0-8.83 c0-1.624,1.216-3.081,2.839-3.166C29.569,23.914,31,25.29,31,27v7c0,1.105,0.895,2,2,2h3V26C36,21.768,33.366,19,29.5,19z"></path>
</symbol>

<svg xmlns="http://www.w3.org/2000/svg" x="0px" y="0px" width="100" height="100" viewBox="0 0 48 48">

</svg>
<symbol id="rss" fill-rule="evenodd" clip-rule="evenodd" stroke-linejoin="round" stroke-miterlimit="1.414"><path d="M12.8 16C12.8 8.978 7.022 3.2 0 3.2V0c8.777 0 16 7.223 16 16h-3.2zM2.194 11.61c1.21 0 2.195.985 2.195 2.196 0 1.21-.99 2.194-2.2 2.194C.98 16 0 15.017 0 13.806c0-1.21.983-2.195 2.194-2.195zM10.606 16h-3.11c0-4.113-3.383-7.497-7.496-7.497v-3.11c5.818 0 10.606 4.79 10.606 10.607z"/></symbol>

</svg>